<mxfile host="app.diagrams.net" agent="Mozilla/5.0 (Windows NT 10.0; Win64; x64) AppleWebKit/537.36 (KHTML, like Gecko) Chrome/138.0.0.0 Safari/537.36" version="28.0.7">
  <diagram name="Page-1" id="J6EeGaOIchr70W_IpRL6">
    <mxGraphModel dx="1042" dy="570" grid="1" gridSize="10" guides="1" tooltips="1" connect="1" arrows="1" fold="1" page="1" pageScale="1" pageWidth="850" pageHeight="1100" math="0" shadow="0">
      <root>
        <mxCell id="0" />
        <mxCell id="1" parent="0" />
        <mxCell id="AT5xWPsN1g-G29PHizzQ-1" value="" style="ellipse;whiteSpace=wrap;html=1;fillColor=#fff2cc;strokeColor=#d6b656;" vertex="1" parent="1">
          <mxGeometry x="180" y="130" width="450" height="310" as="geometry" />
        </mxCell>
        <mxCell id="AT5xWPsN1g-G29PHizzQ-2" value="AGILE&lt;div&gt;ZOMATO&lt;/div&gt;" style="ellipse;whiteSpace=wrap;html=1;fillColor=#e51400;strokeColor=#B20000;fontColor=#ffffff;fontSize=38;" vertex="1" parent="1">
          <mxGeometry x="200" y="160" width="400" height="280" as="geometry" />
        </mxCell>
        <mxCell id="AT5xWPsN1g-G29PHizzQ-5" value="" style="html=1;shadow=0;dashed=0;align=center;verticalAlign=middle;shape=mxgraph.arrows2.bendArrow;dy=15;dx=38;notch=30.2;arrowHead=55;rounded=1;direction=west;fillColor=#fad9d5;strokeColor=#ae4132;" vertex="1" parent="1">
          <mxGeometry x="570" y="390" width="100" height="100" as="geometry" />
        </mxCell>
        <mxCell id="AT5xWPsN1g-G29PHizzQ-7" style="edgeStyle=orthogonalEdgeStyle;rounded=0;orthogonalLoop=1;jettySize=auto;html=1;exitX=0;exitY=0;exitDx=100;exitDy=27.5;exitPerimeter=0;entryX=0.904;entryY=0.258;entryDx=0;entryDy=0;entryPerimeter=0;" edge="1" parent="1" source="AT5xWPsN1g-G29PHizzQ-5" target="AT5xWPsN1g-G29PHizzQ-5">
          <mxGeometry relative="1" as="geometry" />
        </mxCell>
        <mxCell id="AT5xWPsN1g-G29PHizzQ-8" value="" style="html=1;shadow=0;dashed=0;align=center;verticalAlign=middle;shape=mxgraph.arrows2.bendArrow;dy=15;dx=38;notch=19;arrowHead=55;rounded=1;direction=west;fillColor=#f0a30a;fontColor=#000000;strokeColor=#BD7000;" vertex="1" parent="1">
          <mxGeometry x="260" y="440" width="120" height="100" as="geometry" />
        </mxCell>
        <mxCell id="AT5xWPsN1g-G29PHizzQ-9" value="" style="html=1;shadow=0;dashed=0;align=center;verticalAlign=middle;shape=mxgraph.arrows2.bendArrow;dy=15;dx=38;notch=27.8;arrowHead=55;rounded=1;fillColor=#b0e3e6;strokeColor=#0e8088;" vertex="1" parent="1">
          <mxGeometry x="60" y="180" width="100" height="100" as="geometry" />
        </mxCell>
        <mxCell id="AT5xWPsN1g-G29PHizzQ-12" value="" style="html=1;shadow=0;dashed=0;align=center;verticalAlign=middle;shape=mxgraph.arrows2.bendArrow;dy=15;dx=38;notch=22.6;arrowHead=55;rounded=1;fillColor=#6d8764;fontColor=#ffffff;strokeColor=#3A5431;" vertex="1" parent="1">
          <mxGeometry x="355" y="10" width="100" height="100" as="geometry" />
        </mxCell>
        <mxCell id="AT5xWPsN1g-G29PHizzQ-13" value="" style="html=1;shadow=0;dashed=0;align=center;verticalAlign=middle;shape=mxgraph.arrows2.bendArrow;dy=15;dx=38;notch=22;arrowHead=55;rounded=1;direction=south;fillColor=#647687;fontColor=#ffffff;strokeColor=#314354;" vertex="1" parent="1">
          <mxGeometry x="620" y="80" width="100" height="100" as="geometry" />
        </mxCell>
        <mxCell id="AT5xWPsN1g-G29PHizzQ-14" value="Testing" style="ellipse;whiteSpace=wrap;html=1;aspect=fixed;" vertex="1" parent="1">
          <mxGeometry x="470" y="20" width="120" height="120" as="geometry" />
        </mxCell>
        <mxCell id="AT5xWPsN1g-G29PHizzQ-15" value="Depolyment" style="ellipse;whiteSpace=wrap;html=1;aspect=fixed;" vertex="1" parent="1">
          <mxGeometry x="660" y="210" width="140" height="140" as="geometry" />
        </mxCell>
        <mxCell id="AT5xWPsN1g-G29PHizzQ-16" value="Ideation" style="ellipse;whiteSpace=wrap;html=1;aspect=fixed;" vertex="1" parent="1">
          <mxGeometry x="420" y="460" width="170" height="170" as="geometry" />
        </mxCell>
        <mxCell id="AT5xWPsN1g-G29PHizzQ-17" value="Design" style="ellipse;whiteSpace=wrap;html=1;aspect=fixed;" vertex="1" parent="1">
          <mxGeometry x="40" y="350" width="160" height="160" as="geometry" />
        </mxCell>
        <mxCell id="AT5xWPsN1g-G29PHizzQ-18" value="Implementation" style="ellipse;whiteSpace=wrap;html=1;aspect=fixed;" vertex="1" parent="1">
          <mxGeometry x="130" y="30" width="150" height="150" as="geometry" />
        </mxCell>
        <mxCell id="AT5xWPsN1g-G29PHizzQ-19" value="" style="shape=mxgraph.signs.food.food_truck;html=1;pointerEvents=1;fillColor=#000000;strokeColor=none;verticalLabelPosition=bottom;verticalAlign=top;align=center;" vertex="1" parent="1">
          <mxGeometry x="330" y="150" width="178" height="100" as="geometry" />
        </mxCell>
        <mxCell id="AT5xWPsN1g-G29PHizzQ-20" style="edgeStyle=orthogonalEdgeStyle;rounded=0;orthogonalLoop=1;jettySize=auto;html=1;exitX=0.5;exitY=0.89;exitDx=0;exitDy=0;exitPerimeter=0;entryX=0.504;entryY=1.017;entryDx=0;entryDy=0;entryPerimeter=0;" edge="1" parent="1" source="AT5xWPsN1g-G29PHizzQ-19" target="AT5xWPsN1g-G29PHizzQ-19">
          <mxGeometry relative="1" as="geometry" />
        </mxCell>
        <mxCell id="AT5xWPsN1g-G29PHizzQ-21" value="" style="shape=mxgraph.signs.food.restaurant_1;html=1;pointerEvents=1;fillColor=#000000;strokeColor=none;verticalLabelPosition=bottom;verticalAlign=top;align=center;" vertex="1" parent="1">
          <mxGeometry x="225" y="231" width="35" height="98" as="geometry" />
        </mxCell>
        <mxCell id="AT5xWPsN1g-G29PHizzQ-22" value="" style="shape=mxgraph.signs.food.fast_food;html=1;pointerEvents=1;fillColor=#000000;strokeColor=none;verticalLabelPosition=bottom;verticalAlign=top;align=center;" vertex="1" parent="1">
          <mxGeometry x="508" y="231" width="98" height="87" as="geometry" />
        </mxCell>
        <mxCell id="AT5xWPsN1g-G29PHizzQ-23" value="" style="shape=mxgraph.signs.food.coffee;html=1;pointerEvents=1;fillColor=#000000;strokeColor=none;verticalLabelPosition=bottom;verticalAlign=top;align=center;" vertex="1" parent="1">
          <mxGeometry x="351" y="360" width="98" height="61" as="geometry" />
        </mxCell>
        <mxCell id="AT5xWPsN1g-G29PHizzQ-25" value="" style="shape=mxgraph.signs.food.knife;html=1;pointerEvents=1;fillColor=#000000;strokeColor=none;verticalLabelPosition=bottom;verticalAlign=top;align=center;" vertex="1" parent="1">
          <mxGeometry x="533" y="19" width="97" height="11" as="geometry" />
        </mxCell>
        <mxCell id="AT5xWPsN1g-G29PHizzQ-26" value="" style="shape=mxgraph.signs.food.drinking_water_1;html=1;pointerEvents=1;fillColor=#000000;strokeColor=none;verticalLabelPosition=bottom;verticalAlign=top;align=center;" vertex="1" parent="1">
          <mxGeometry x="760" y="150" width="64" height="78" as="geometry" />
        </mxCell>
        <mxCell id="AT5xWPsN1g-G29PHizzQ-27" value="" style="shape=mxgraph.signs.food.fast_food;html=1;pointerEvents=1;fillColor=#000000;strokeColor=none;verticalLabelPosition=bottom;verticalAlign=top;align=center;" vertex="1" parent="1">
          <mxGeometry x="680" y="460" width="80" height="74" as="geometry" />
        </mxCell>
        <mxCell id="AT5xWPsN1g-G29PHizzQ-28" value="" style="shape=mxgraph.signs.food.cans_and_bottles;html=1;pointerEvents=1;fillColor=#000000;strokeColor=none;verticalLabelPosition=bottom;verticalAlign=top;align=center;" vertex="1" parent="1">
          <mxGeometry x="180" y="530" width="45" height="88" as="geometry" />
        </mxCell>
        <mxCell id="AT5xWPsN1g-G29PHizzQ-29" value="" style="shape=mxgraph.signs.food.bar;html=1;pointerEvents=1;fillColor=#000000;strokeColor=none;verticalLabelPosition=bottom;verticalAlign=top;align=center;" vertex="1" parent="1">
          <mxGeometry x="70" y="120" width="60" height="58" as="geometry" />
        </mxCell>
        <mxCell id="AT5xWPsN1g-G29PHizzQ-30" value="" style="shape=mxgraph.signs.food.coffee;html=1;pointerEvents=1;fillColor=#000000;strokeColor=none;verticalLabelPosition=bottom;verticalAlign=top;align=center;" vertex="1" parent="1">
          <mxGeometry x="280" y="30" width="58" height="41" as="geometry" />
        </mxCell>
      </root>
    </mxGraphModel>
  </diagram>
</mxfile>
